<?xml version="1.0" encoding="utf-8"?>
<!-- Generator: Adobe Illustrator 15.1.0, SVG Export Plug-In . SVG Version: 6.00 Build 0)  -->
<!DOCTYPE svg PUBLIC "-//W3C//DTD SVG 1.1//EN" "http://www.w3.org/Graphics/SVG/1.1/DTD/svg11.dtd">
<svg version="1.1" id="Ebene_1" xmlns="http://www.w3.org/2000/svg" xmlns:xlink="http://www.w3.org/1999/xlink" x="0px" y="0px"
	 width="8.25px" height="6.292px" viewBox="0 0 8.25 6.292" enable-background="new 0 0 8.25 6.292" xml:space="preserve">
<path d="M7.966,0.041H0.27C0.102,0.041,0,0.141,0,0.31v4.929c0,0.169,0.168,0.271,0.337,0.271h0.772L0.902,5.896
	c-0.033,0.062-0.01,0.139,0.051,0.172l0.391,0.209c0.061,0.034,0.139,0.012,0.172-0.051L1.9,5.509h6.066
	c0.168,0,0.27-0.102,0.27-0.271V0.31C8.236,0.141,8.134,0.041,7.966,0.041z M1.673,0.214c0.106,0,0.194,0.086,0.194,0.193
	S1.779,0.603,1.673,0.603S1.479,0.516,1.479,0.408C1.479,0.3,1.566,0.214,1.673,0.214z M1.143,0.214
	c0.108,0,0.195,0.086,0.195,0.193S1.251,0.603,1.143,0.603c-0.106,0-0.193-0.087-0.193-0.195C0.949,0.3,1.035,0.214,1.143,0.214z
	 M0.611,0.214c0.107,0,0.195,0.086,0.195,0.193S0.719,0.603,0.611,0.603c-0.106,0-0.194-0.087-0.194-0.195
	C0.418,0.3,0.505,0.214,0.611,0.214z M7.73,5.125H2.107L2.406,4.57l0.712,0.385c0.038,0.021,0.084,0.021,0.123-0.002
	c0.038-0.021,0.062-0.062,0.063-0.104l0.109-2.567C3.416,2.235,3.391,2.19,3.35,2.167C3.305,2.136,3.256,2.146,3.216,2.173
	L1.07,3.642C1.034,3.667,1.014,3.708,1.016,3.753s0.027,0.084,0.066,0.104l0.711,0.384L1.316,5.125H0.445V1.626h7.283v3.498H7.73z
	 M7.73,1.315H0.447V0.847H7.73V1.315z"/>
</svg>
