<?xml version="1.0" encoding="utf-8"?>
<!-- Generator: Adobe Illustrator 16.0.0, SVG Export Plug-In . SVG Version: 6.00 Build 0)  -->
<!DOCTYPE svg PUBLIC "-//W3C//DTD SVG 1.1//EN" "http://www.w3.org/Graphics/SVG/1.1/DTD/svg11.dtd">
<svg version="1.1" id="Ebene_1" xmlns="http://www.w3.org/2000/svg" xmlns:xlink="http://www.w3.org/1999/xlink" x="0px" y="0px"
	 width="10px" height="10px" viewBox="0 0 10 10" enable-background="new 0 0 10 10" xml:space="preserve">
<path d="M9.665,1.21H0.334c-0.204,0-0.327,0.121-0.327,0.326v5.977c0,0.203,0.204,0.327,0.408,0.327h0.937L1.101,8.309
	c-0.04,0.076-0.012,0.168,0.062,0.209l0.474,0.253C1.71,8.812,1.805,8.785,1.845,8.709L2.311,7.84h7.354
	c0.203,0,0.328-0.124,0.328-0.329V1.536C9.993,1.331,9.868,1.21,9.665,1.21z M2.035,1.419c0.128,0,0.235,0.104,0.235,0.234
	S2.164,1.891,2.035,1.891S1.8,1.786,1.8,1.655C1.8,1.524,1.906,1.419,2.035,1.419z M1.393,1.419c0.131,0,0.236,0.104,0.236,0.234
	S1.524,1.891,1.393,1.891c-0.129,0-0.234-0.105-0.234-0.236C1.158,1.524,1.262,1.419,1.393,1.419z M0.748,1.419
	c0.129,0,0.237,0.104,0.237,0.234S0.879,1.891,0.748,1.891c-0.128,0-0.235-0.105-0.235-0.236C0.514,1.524,0.619,1.419,0.748,1.419z
	 M9.38,7.374H2.562l0.362-0.673l0.864,0.467C3.833,7.194,3.89,7.194,3.937,7.165C3.982,7.14,4.012,7.09,4.013,7.04l0.132-3.111
	C4.148,3.87,4.118,3.815,4.069,3.788C4.014,3.75,3.955,3.762,3.906,3.794L1.304,5.577c-0.043,0.03-0.067,0.08-0.064,0.135
	c0.002,0.054,0.032,0.102,0.08,0.125l0.862,0.467l-0.578,1.07H0.546V3.131h8.831v4.242H9.38L9.38,7.374z M9.38,2.755H0.549V2.188
	H9.38V2.755z"/>
</svg>
