<?xml version="1.0" encoding="utf-8"?>
<!-- Generator: Adobe Illustrator 15.1.0, SVG Export Plug-In . SVG Version: 6.00 Build 0)  -->
<!DOCTYPE svg PUBLIC "-//W3C//DTD SVG 1.1//EN" "http://www.w3.org/Graphics/SVG/1.1/DTD/svg11.dtd">
<svg version="1.1" id="Layer_1" xmlns="http://www.w3.org/2000/svg" xmlns:xlink="http://www.w3.org/1999/xlink" x="0px" y="0px"
	 width="72.258px" height="72.258px" viewBox="0 0 72.258 72.258" enable-background="new 0 0 72.258 72.258" xml:space="preserve">
<g>
	<path d="M47.813,42.225l0.945,1.915l-2.026,2.026l-1.88,1.88c-1.116,1.116-2.438,1.947-3.876,2.48l12.769,12.769l6.041,8.095
		l3.206,0.866l8.91-8.961l-0.863-3.279l-8.037-5.982L50.935,41.965l-1.202,1.202L47.813,42.225z M62.136,58.593
		c2.083,0,3.771,1.689,3.771,3.772s-1.688,3.771-3.771,3.771s-3.772-1.688-3.772-3.771S60.053,58.593,62.136,58.593z"/>
	<path d="M26.484,25.941l2.072-2.072l1.876,0.977l-0.975-1.879l2.071-2.072l0.206-0.206c0.46-1.191,0.73-2.368,0.729-3.472
		c0-8.549-8.175-16.82-16.718-16.718c-0.033,0-0.999,0.979-1.525,1.505c6.848,6.849,6.282,5.736,6.282,9.937
		c0,3.408-5.458,8.79-8.79,8.79c-4.312,0-2.939,0.715-9.935-6.283c-0.544,0.543-1.508,1.493-1.509,1.526
		c0.104,8.546,8.175,16.719,16.721,16.719c1.547,0,3.201-0.494,4.834-1.315l0.311,0.311c0.522-1.414,1.344-2.743,2.479-3.878
		L26.484,25.941z"/>
	<path d="M70.266,7.38l-4.984-4.984c-1.325-1.325-3.062-1.987-4.798-1.987c-1.737,0-3.475,0.663-4.798,1.989L34.357,23.723
		c0.655,1.263,0.172,3.177-0.847,4.197c-0.701,0.702-1.824,1.148-2.866,1.148c-0.478,0-0.937-0.093-1.333-0.299l-1.869,1.868
		c-2.65,2.65-2.65,6.947-0.002,9.596l0.348,0.348L11.147,57.22L6.705,58.9l-6.479,9.248l4.159,4.145l9.233-6.453l1.683-4.479
		l16.632-16.633l0.494,0.493c1.324,1.325,3.061,1.987,4.796,1.987c1.738,0,3.475-0.664,4.801-1.99l1.88-1.88
		c-0.621-1.261-0.141-3.144,0.871-4.155c0.698-0.699,1.817-1.145,2.859-1.145c0.46,0,0.906,0.087,1.293,0.277l21.339-21.338
		C72.915,14.328,72.915,10.031,70.266,7.38z"/>
</g>
</svg>
