<svg xmlns="http://www.w3.org/2000/svg" xmlns:xlink="http://www.w3.org/1999/xlink" version="1.1" id="Layer_1" x="0px" y="0px" width="100px" height="100px" viewBox="0 0 100 100" enable-background="new 0 0 100 100" xml:space="preserve">
<polygon fill-rule="evenodd" clip-rule="evenodd" points="81.098,74.293 81.098,79.816 7.045,55.881 7.045,61.355 43.563,73.125   43.563,78.615 7.091,66.85 7.091,98.137 92.51,98.137 92.51,32.883 81.098,32.883 81.098,68.848 43.563,56.729 43.563,62.266 "/>
<path fill-rule="evenodd" clip-rule="evenodd" d="M84.51,30.423h4.878c0.106-4.629-3.569-12.321-9.106-15.289  c0.109-2.107-0.139-4.723-1.108-6.985c-1.398-3.383-5.075-5.583-8.753-6.044c-4.921-0.6-7.737,1.46-10.26,4.124  c-2.506,2.675-6.983,2.167-9.351,0.708c-2.37-1.508-7.247-3.324-11.615,0.353c-4.383,3.615-5.892,0.86-10.26-0.109  c-4.339-0.951-10.321,1.662-10.369,8.154c0.247,6.891,7.199,9.551,10.967,7.907c3.77-1.662,5.278-4.079,9.953-0.262  c4.431,3.629,10.262,1.507,12.538-1.263c2.198-2.815,6.476-2.706,9.091-0.137c2.568,2.616,4.537,3.214,8.154,3.262  c2.968,0.044,5.428-1.4,7.351-2.816C80.635,22.024,83.711,25.901,84.51,30.423"/>
</svg>