<?xml version="1.0" encoding="utf-8"?>
<!-- Generator: Adobe Illustrator 16.0.0, SVG Export Plug-In . SVG Version: 6.00 Build 0)  -->
<!DOCTYPE svg PUBLIC "-//W3C//DTD SVG 1.1//EN" "http://www.w3.org/Graphics/SVG/1.1/DTD/svg11.dtd">
<svg version="1.1" id="Layer_1" xmlns="http://www.w3.org/2000/svg" xmlns:xlink="http://www.w3.org/1999/xlink" x="0px" y="0px"
	 width="100px" height="100px" viewBox="0 0 100 100" enable-background="new 0 0 100 100" xml:space="preserve">
<polygon points="82.579,75.198 82.579,80.943 5.551,56.046 5.551,61.74 43.536,73.983 43.536,79.694 5.599,67.456 5.599,100 
	94.45,100 94.45,32.124 82.579,32.124 82.579,69.534 43.536,56.928 43.536,62.688 "/>
<path d="M86.129,29.565h5.074c0.11-4.815-3.713-12.816-9.472-15.903c0.112-2.192-0.146-4.913-1.153-7.266
	c-1.454-3.519-5.278-5.807-9.104-6.287c-5.119-0.625-8.048,1.519-10.672,4.29c-2.607,2.782-7.265,2.254-9.727,0.736
	c-2.466-1.568-7.539-3.458-12.083,0.367c-4.559,3.761-6.128,0.895-10.672-0.113C23.808,4.4,17.584,7.118,17.535,13.871
	c0.257,7.168,7.489,9.935,11.408,8.225c3.921-1.729,5.49-4.243,10.353-0.272c4.609,3.774,10.674,1.567,13.042-1.314
	c2.288-2.928,6.736-2.815,9.457-0.143c2.672,2.721,4.72,3.343,8.482,3.393c3.086,0.046,5.646-1.456,7.646-2.929
	C82.098,20.829,85.298,24.861,86.129,29.565"/>
</svg>
