<?xml version="1.0" encoding="utf-8"?>
<!-- Generator: Adobe Illustrator 15.1.0, SVG Export Plug-In . SVG Version: 6.00 Build 0)  -->
<!DOCTYPE svg PUBLIC "-//W3C//DTD SVG 1.1//EN" "http://www.w3.org/Graphics/SVG/1.1/DTD/svg11.dtd">
<svg version="1.1" id="Layer_1" xmlns="http://www.w3.org/2000/svg" xmlns:xlink="http://www.w3.org/1999/xlink" x="0px" y="0px"
	 width="72.258px" height="72.258px" viewBox="0 0 72.258 72.258" enable-background="new 0 0 72.258 72.258" xml:space="preserve">
<path fill="#010101" d="M71.492,67.883c-0.159-1.506-2.404-3.68-4.496-5.406l0.397-0.397c3.555-3.556,3.555-9.343,0-12.898
	L55.261,37.048c-3.556-3.556-9.345-3.556-12.9-0.001l-0.403,0.404c-0.713-4.045-2.902-6.708-7.749-6.545l1.006-1.005
	c3.556-3.556,3.556-9.343,0-12.899L23.08,4.868c-3.556-3.556-9.344-3.556-12.899-0.001L9.985,5.062
	C8.36,3.132,6.454,1.295,5.086,1.295C4.01,1.296,1.93,3.269,2.043,4.338c0.142,1.347,1.948,3.226,3.826,4.84l-3.203,3.203
	c-3.554,3.554-3.554,9.342,0.002,12.898l12.133,12.133c3.557,3.558,9.345,3.556,12.898,0.002l2.556-2.557
	c4.931-0.258,7.862,1.658,7.537,6.756l-2.944,2.945c-3.556,3.556-3.554,9.343,0.002,12.898l12.133,12.133
	c3.556,3.556,9.343,3.557,12.897,0.002l3.11-3.111c1.729,2.154,3.929,4.445,5.458,4.444C69.527,70.926,71.605,68.954,71.492,67.883z
	 M23.4,33.112c-1.186,1.186-3.114,1.186-4.3,0L6.968,20.98c-1.186-1.186-1.186-3.115,0-4.3l7.513-7.514
	c1.185-1.186,3.115-1.186,4.3,0L30.915,21.3c1.186,1.185,1.186,3.114,0,4.299L23.4,33.112L23.4,33.112z M55.58,65.292
	c-1.187,1.186-3.113,1.186-4.3,0L39.148,53.16c-1.187-1.188-1.187-3.116-0.001-4.301l7.514-7.513c1.185-1.187,3.114-1.187,4.3,0.001
	L63.094,53.48c1.187,1.185,1.187,3.114,0,4.301l-7.513,7.513L55.58,65.292z"/>
</svg>
