<?xml version="1.0" encoding="utf-8"?>
<!-- Generator: Adobe Illustrator 16.0.0, SVG Export Plug-In . SVG Version: 6.00 Build 0)  -->
<!DOCTYPE svg PUBLIC "-//W3C//DTD SVG 1.1//EN" "http://www.w3.org/Graphics/SVG/1.1/DTD/svg11.dtd">
<svg version="1.1" id="Layer_1" xmlns="http://www.w3.org/2000/svg" xmlns:xlink="http://www.w3.org/1999/xlink" x="0px" y="0px"
	 width="100px" height="100px" viewBox="0 0 100 100" enable-background="new 0 0 100 100" xml:space="preserve">
<path d="M45.833,12.501c0-1.422,0.858-2.642,2.083-3.179V6.946l-8.333,2.778v9.722h8.333V15.68
	C46.692,15.143,45.833,13.924,45.833,12.501z"/>
<polygon points="53.471,23.607 34.028,23.607 25.695,31.94 61.805,31.94 "/>
<path d="M75.695,13.89h-4.167c-0.769,0-1.39-0.621-1.39-1.389s0.621-1.389,1.39-1.389h4.167c0.768,0,1.389,0.621,1.389,1.389
	S76.462,13.89,75.695,13.89z"/>
<path d="M69.447,4.498c-0.514,0-1.003-0.284-1.245-0.773c-0.342-0.687-0.061-1.521,0.627-1.861l3.473-1.719
	c0.687-0.342,1.52-0.058,1.86,0.629c0.339,0.687,0.059,1.521-0.629,1.861l-3.47,1.719C69.865,4.452,69.654,4.498,69.447,4.498z"/>
<path d="M72.915,25.001c-0.208,0-0.417-0.046-0.614-0.144l-3.473-1.719c-0.688-0.34-0.969-1.174-0.627-1.861
	c0.34-0.689,1.17-0.97,1.861-0.629l3.47,1.719c0.688,0.34,0.968,1.174,0.629,1.861C73.919,24.718,73.425,25.001,72.915,25.001z"/>
<path d="M65.971,11.112H55.569l9.43-4.397c0.694-0.324,0.995-1.15,0.671-1.846c-0.233-0.504-0.736-0.802-1.26-0.802
	c-0.195,0-0.396,0.042-0.586,0.13c0,0-15.217,7.13-15.249,7.152c-0.386,0.247-0.658,0.659-0.658,1.151
	c0,0.493,0.271,0.905,0.658,1.152c0.032,0.021,15.249,7.152,15.249,7.152c0.189,0.088,0.391,0.13,0.586,0.13
	c0.522,0,1.025-0.297,1.26-0.801c0.324-0.696,0.023-1.522-0.671-1.846l-9.43-4.397h10.402c0.769,0,1.39-0.621,1.39-1.389
	S66.74,11.112,65.971,11.112z"/>
<path d="M25.695,36.112V100h36.11V36.112H25.695z M43.75,77.773c-5.37,0-9.722-4.354-9.722-9.724c0-5.368,4.353-9.722,9.722-9.722
	s9.722,4.354,9.722,9.722C53.471,73.42,49.119,77.773,43.75,77.773z"/>
</svg>
