<svg xmlns="http://www.w3.org/2000/svg" xmlns:xlink="http://www.w3.org/1999/xlink" version="1.1" id="Layer_1" x="0px" y="0px" width="51.389px" height="100px" viewBox="0 0 51.389 100" enable-background="new 0 0 51.389 100" xml:space="preserve">
<path d="M20.139,12.501c0-1.422,0.858-2.642,2.083-3.179V6.946l-8.333,2.778v9.722h8.333V15.68  C20.997,15.143,20.139,13.924,20.139,12.501z"/>
<polygon points="27.777,23.607 8.333,23.607 0,31.94 36.111,31.94 "/>
<path d="M50,13.89h-4.167c-0.768,0-1.389-0.621-1.389-1.389c0-0.768,0.621-1.389,1.389-1.389H50c0.768,0,1.389,0.621,1.389,1.389  C51.389,13.269,50.768,13.89,50,13.89z"/>
<path d="M43.752,4.498c-0.513,0-1.003-0.284-1.245-0.773c-0.342-0.687-0.06-1.521,0.627-1.861l3.473-1.719  c0.686-0.342,1.519-0.058,1.86,0.629c0.339,0.687,0.059,1.521-0.629,1.861l-3.47,1.719C44.17,4.452,43.959,4.498,43.752,4.498z"/>
<path d="M47.221,25.001c-0.208,0-0.417-0.046-0.614-0.144l-3.473-1.719c-0.687-0.34-0.969-1.174-0.627-1.861  c0.34-0.689,1.17-0.97,1.861-0.629l3.47,1.719c0.688,0.34,0.968,1.174,0.629,1.861C48.225,24.718,47.731,25.001,47.221,25.001z"/>
<path d="M40.277,11.112H29.874l9.43-4.397c0.694-0.324,0.995-1.15,0.671-1.846c-0.234-0.504-0.736-0.802-1.26-0.802  c-0.195,0-0.396,0.042-0.586,0.13c0,0-15.217,7.13-15.249,7.152c-0.386,0.247-0.658,0.659-0.658,1.151  c0,0.493,0.271,0.905,0.658,1.152c0.032,0.021,15.249,7.152,15.249,7.152c0.19,0.088,0.391,0.13,0.586,0.13  c0.523,0,1.025-0.297,1.26-0.801c0.324-0.696,0.023-1.522-0.671-1.846l-9.43-4.397h10.403c0.768,0,1.389-0.621,1.389-1.389  C41.666,11.733,41.045,11.112,40.277,11.112z"/>
<path d="M0,36.112V100h36.111V36.112H0z M18.056,77.773c-5.37,0-9.722-4.353-9.722-9.723c0-5.369,4.353-9.722,9.722-9.722  s9.722,4.353,9.722,9.722C27.777,73.42,23.425,77.773,18.056,77.773z"/>
</svg>