<svg xmlns="http://www.w3.org/2000/svg" xmlns:xlink="http://www.w3.org/1999/xlink" version="1.1" id="Layer_1" x="0px" y="0px" width="100px" height="100px" viewBox="0 0 100 100" enable-background="new 0 0 100 100" xml:space="preserve">
<path fill="#000000" d="M76.573,11.611C88.466,20.315,95.66,34.172,95.66,49.033c0,15.234-7.225,28.966-19.599,37.967H23.933  C11.56,77.999,4.209,64.461,4.209,49.228C4.209,34.37,11.271,20,23.164,12h53.148 M78.165,8H21.831C8.652,15.999,0,32.389,0,49.729  C0,67.422,9.013,82,22.647,91.999h54.699C90.983,82,100,67.422,100,49.729C100,32.389,91.347,15.999,78.165,8L78.165,8z"/>
<rect x="28.314" y="28.999" fill="#000000" width="6" height="24"/>
<rect x="65.311" y="31" fill="#000000" width="6.003" height="20"/>
<path fill="#000000" d="M50.001,66.999c-4.974,0-9.001,2.001-9.001,6v9.086h18.001v-9.086C59.001,69,54.969,66.999,50.001,66.999z"/>
</svg>