<svg xmlns="http://www.w3.org/2000/svg" xmlns:xlink="http://www.w3.org/1999/xlink" version="1.0" id="Layer_1" x="0px" y="0px" width="100px" height="100px" viewBox="0 0 100 100" enable-background="new 0 0 100 100" xml:space="preserve">
<path fill-rule="evenodd" clip-rule="evenodd" d="M43.6,1.68C43.6,30.06,22,50.34,22,50.34l13.46,34.14h27.08L76,50.34  c0,0-21.6-20.28-21.6-48.66c0-1.52-3.6,0-3.6,0v50.44c2.1,0.75,3.6,2.77,3.6,5.14c0,3.01-2.42,5.44-5.4,5.44s-5.4-2.43-5.4-5.44  c0-2.37,1.5-4.39,3.6-5.14V1.68C47.2,1.68,43.6,0.16,43.6,1.68z M25.6,88.11V99h46.8V88.11H25.6z"/>
</svg>