<?xml version="1.0" encoding="utf-8"?>
<!-- Generator: Adobe Illustrator 15.1.0, SVG Export Plug-In . SVG Version: 6.00 Build 0)  -->
<!DOCTYPE svg PUBLIC "-//W3C//DTD SVG 1.1//EN" "http://www.w3.org/Graphics/SVG/1.1/DTD/svg11.dtd">
<svg version="1.1" id="Layer_1" xmlns="http://www.w3.org/2000/svg" xmlns:xlink="http://www.w3.org/1999/xlink" x="0px" y="0px"
	 width="58.391px" height="100px" viewBox="0 0 58.391 100" enable-background="new 0 0 58.391 100" xml:space="preserve">
<circle cx="38.721" cy="33.621" r="4.148"/>
<path d="M45.875,29.436C57.268,8.877,59.217,0.677,58.122,0.045c-1.091-0.631-7.217,5.15-19.313,25.282
	C41.822,25.359,44.447,27.003,45.875,29.436z"/>
<path d="M30.424,33.621c0-1.486,0.397-2.879,1.083-4.087C8.059,29.949,0,32.359,0,33.621c0,1.261,8.058,3.672,31.505,4.086
	C30.821,36.5,30.424,35.108,30.424,33.621z"/>
<path d="M45.884,37.794c-1.424,2.436-4.046,4.083-7.061,4.119C50.911,62.021,57.03,67.798,58.124,67.167
	C59.217,66.535,57.271,58.34,45.884,37.794z"/>
<path d="M34.573,42.889v1.795V100h8.297V56.07C40.49,52.552,37.745,48.22,34.573,42.889z"/>
</svg>
