<svg xmlns="http://www.w3.org/2000/svg" xmlns:xlink="http://www.w3.org/1999/xlink" version="1.1" id="Layer_1" x="0px" y="0px" width="100px" height="100px" viewBox="0 0 100 100" style="enable-background:new 0 0 100 100;" xml:space="preserve">
<path style="fill:#010101;" d="M87.5,75c-3.039,0-5.725,1.221-7.886,3.016l-19.056-13.6c1.209-2.49,1.941-5.225,1.941-8.166  c0-4.041-1.318-7.775-3.491-10.828l22.29-22.302C83.154,24.207,85.193,25,87.5,25c6.909,0,12.5-5.591,12.5-12.5S94.409,0,87.5,0  S75,5.591,75,12.5c0,2.307,0.793,4.346,1.88,6.201L54.59,41.004c-3.076-2.197-6.787-3.504-10.84-3.504  c-7.153,0-13.306,4.064-16.467,9.973l-15.052-5.029C11.621,39.637,9.24,37.5,6.25,37.5C2.795,37.5,0,40.295,0,43.75  S2.795,50,6.25,50c1.574,0,2.979-0.635,4.077-1.6l14.966,4.993C25.146,54.334,25,55.273,25,56.25C25,66.602,33.398,75,43.75,75  c5.151,0,9.826-2.088,13.221-5.457l18.933,13.514C75.366,84.448,75,85.926,75,87.5c0,6.896,5.591,12.5,12.5,12.5  S100,94.396,100,87.5S94.409,75,87.5,75z"/>
</svg>