<?xml version="1.0" encoding="utf-8"?>
<!-- Generator: Adobe Illustrator 13.0.0, SVG Export Plug-In . SVG Version: 6.00 Build 14948)  -->
<!DOCTYPE svg PUBLIC "-//W3C//DTD SVG 1.1//EN" "http://www.w3.org/Graphics/SVG/1.1/DTD/svg11.dtd">
<svg version="1.1" id="Layer_1" xmlns="http://www.w3.org/2000/svg" xmlns:xlink="http://www.w3.org/1999/xlink" x="0px" y="0px"
	 width="16px" height="16px" viewBox="0 0 16 16" enable-background="new 0 0 16 16" xml:space="preserve">
<g>
	<g>
		<path d="M8,0.918c-3.894,0-7.051,3.156-7.051,7.051c0,3.894,3.157,7.051,7.051,7.051c3.895,0,7.051-3.157,7.051-7.051
			C15.051,4.074,11.895,0.918,8,0.918z M8,13.178c-2.876,0-5.208-2.333-5.208-5.209c0-2.877,2.332-5.208,5.208-5.208
			c2.877,0,5.208,2.331,5.208,5.208C13.208,10.845,10.877,13.178,8,13.178z M8.576,4.002H7.424v4.205l2.489,2.552l0.815-0.814
			L8.576,7.73V4.002z"/>
	</g>
</g>
</svg>
