<?xml version="1.0" encoding="utf-8"?>
<!-- Generator: Adobe Illustrator 13.0.0, SVG Export Plug-In . SVG Version: 6.00 Build 14948)  -->
<!DOCTYPE svg PUBLIC "-//W3C//DTD SVG 1.1//EN" "http://www.w3.org/Graphics/SVG/1.1/DTD/svg11.dtd">
<svg version="1.1" id="Layer_1" xmlns="http://www.w3.org/2000/svg" xmlns:xlink="http://www.w3.org/1999/xlink" x="0px" y="0px"
	 width="16px" height="16px" viewBox="0 0 16 16" enable-background="new 0 0 16 16" xml:space="preserve">
<path d="M12.964,8.013c0-0.765,0.471-1.368,1.179-1.782c-0.128-0.427-0.297-0.836-0.505-1.221c-0.795,0.208-1.438-0.104-1.979-0.644
	c-0.541-0.541-0.705-1.185-0.498-1.979c-0.385-0.208-0.793-0.378-1.22-0.505C9.526,2.592,8.777,3.062,8.013,3.062
	c-0.764,0-1.514-0.47-1.928-1.179C5.658,2.01,5.249,2.18,4.864,2.388c0.208,0.794,0.042,1.438-0.498,1.979
	C3.825,4.906,3.182,5.218,2.387,5.01C2.179,5.395,2.01,5.804,1.882,6.23c0.709,0.414,1.18,1.018,1.18,1.782s-0.471,1.514-1.18,1.929
	c0.128,0.427,0.297,0.835,0.505,1.22c0.795-0.208,1.438-0.042,1.979,0.499c0.54,0.54,0.706,1.184,0.498,1.978
	c0.385,0.209,0.793,0.378,1.22,0.505c0.415-0.709,1.164-1.179,1.928-1.179c0.765,0,1.514,0.47,1.929,1.179
	c0.427-0.127,0.835-0.296,1.22-0.505c-0.207-0.794-0.043-1.438,0.498-1.978c0.541-0.541,1.184-0.853,1.979-0.645
	c0.208-0.385,0.377-0.794,0.505-1.221C13.435,9.381,12.964,8.777,12.964,8.013z M8.013,10.679c-1.472,0-2.666-1.193-2.666-2.666
	s1.194-2.666,2.666-2.666c1.473,0,2.666,1.193,2.666,2.666S9.485,10.679,8.013,10.679z"/>
</svg>
