<?xml version="1.0" encoding="utf-8"?>
<!-- Generator: Adobe Illustrator 13.0.0, SVG Export Plug-In . SVG Version: 6.00 Build 14948)  -->
<!DOCTYPE svg PUBLIC "-//W3C//DTD SVG 1.1//EN" "http://www.w3.org/Graphics/SVG/1.1/DTD/svg11.dtd">
<svg version="1.1" id="Layer_1" xmlns="http://www.w3.org/2000/svg" xmlns:xlink="http://www.w3.org/1999/xlink" x="0px" y="0px"
	 width="16px" height="16px" viewBox="0 0 16 16" enable-background="new 0 0 16 16" xml:space="preserve">
<g>
	<g>
		<path fill-rule="evenodd" clip-rule="evenodd" d="M8.002,2.097c-0.565,0-0.992,0.459-0.992,1.024v9.765
			c0,0.565,0.427,1.023,0.992,1.023s0.993-0.458,0.993-1.023V3.121C8.995,2.556,8.567,2.097,8.002,2.097z M12.006,2.097
			c-0.565,0-0.992,0.459-0.992,1.024v9.765c0,0.565,0.427,1.023,0.992,1.023s0.992-0.458,0.992-1.023V3.121
			C12.998,2.556,12.571,2.097,12.006,2.097z M4.002,2.097c-0.565,0-0.992,0.459-0.992,1.024v9.765c0,0.565,0.427,1.023,0.992,1.023
			c0.566,0,0.993-0.458,0.993-1.023V3.121C4.995,2.556,4.568,2.097,4.002,2.097z"/>
	</g>
</g>
</svg>
