<?xml version="1.0" encoding="utf-8"?>
<!-- Generator: Adobe Illustrator 13.0.0, SVG Export Plug-In . SVG Version: 6.00 Build 14948)  -->
<!DOCTYPE svg PUBLIC "-//W3C//DTD SVG 1.1//EN" "http://www.w3.org/Graphics/SVG/1.1/DTD/svg11.dtd">
<svg version="1.1" id="Layer_1" xmlns="http://www.w3.org/2000/svg" xmlns:xlink="http://www.w3.org/1999/xlink" x="0px" y="0px"
	 width="16px" height="16px" viewBox="0 0 16 16" enable-background="new 0 0 16 16" xml:space="preserve">
<g>
	<g>
		<path fill-rule="evenodd" clip-rule="evenodd" d="M12.885,7.005H3.121c-0.565,0-1.024,0.428-1.024,0.993S2.555,8.99,3.121,8.99
			h9.764c0.566,0,1.024-0.427,1.024-0.992S13.451,7.005,12.885,7.005z M3.121,4.986h9.764c0.566,0,1.024-0.427,1.024-0.992
			s-0.458-0.992-1.024-0.992H3.121c-0.565,0-1.024,0.427-1.024,0.992S2.555,4.986,3.121,4.986z M12.885,11.005H3.121
			c-0.565,0-1.024,0.427-1.024,0.993c0,0.565,0.458,0.992,1.024,0.992h9.764c0.566,0,1.024-0.427,1.024-0.992
			C13.909,11.432,13.451,11.005,12.885,11.005z"/>
	</g>
</g>
</svg>
