<?xml version="1.0" encoding="utf-8"?>
<!-- Generator: Adobe Illustrator 13.0.0, SVG Export Plug-In . SVG Version: 6.00 Build 14948)  -->
<!DOCTYPE svg PUBLIC "-//W3C//DTD SVG 1.1//EN" "http://www.w3.org/Graphics/SVG/1.1/DTD/svg11.dtd">
<svg version="1.1" id="Layer_1" xmlns="http://www.w3.org/2000/svg" xmlns:xlink="http://www.w3.org/1999/xlink" x="0px" y="0px"
	 width="16px" height="16px" viewBox="0 0 16 16" enable-background="new 0 0 16 16" xml:space="preserve">
<path d="M7.386,7.179h1.213v1.51h6.479c0,0-0.111-2.024-0.15-3.078c-0.037-1-0.396-1.619-1.51-1.619h-2.421
	c-0.375-0.707-0.778-1.468-0.903-1.701c-0.249-0.472-0.334-0.562-0.89-0.562H6.858c-0.555,0-0.64,0.091-0.89,0.562
	C5.845,2.523,5.441,3.284,5.066,3.991H2.646c-1.114,0-1.469,0.619-1.51,1.619c-0.041,1.001-0.15,3.078-0.15,3.078h6.4V7.179z
	 M6.758,3.173c0.173-0.326,0.231-0.39,0.616-0.39h1.314c0.384,0,0.443,0.063,0.616,0.39c0.064,0.122,0.24,0.453,0.434,0.818H6.323
	C6.518,3.626,6.693,3.295,6.758,3.173 M8.599,10.928H7.386v-0.927H1.362c0,0,0.094,1.357,0.15,2.508
	c0.023,0.477,0.164,1.266,1.358,1.266h10.32c1.194,0,1.331-0.789,1.357-1.266c0.066-1.184,0.151-2.508,0.151-2.508H8.599V10.928z"/>
</svg>
