<?xml version="1.0" encoding="utf-8"?>
<!-- Generator: Adobe Illustrator 13.0.0, SVG Export Plug-In . SVG Version: 6.00 Build 14948)  -->
<!DOCTYPE svg PUBLIC "-//W3C//DTD SVG 1.1//EN" "http://www.w3.org/Graphics/SVG/1.1/DTD/svg11.dtd">
<svg version="1.1" id="Layer_1" xmlns="http://www.w3.org/2000/svg" xmlns:xlink="http://www.w3.org/1999/xlink" x="0px" y="0px"
	 width="16px" height="16px" viewBox="0 0 16 16" enable-background="new 0 0 16 16" xml:space="preserve">
<g>
	<g>
		<path d="M7.969,7.107c-1.122,0-2.033,0.912-2.033,2.035c0,1.121,0.911,2.033,2.033,2.033c1.123,0,2.033-0.912,2.033-2.033
			C10.002,8.019,9.092,7.107,7.969,7.107z M14.769,5.729c-0.344-1-1.237-1.04-1.237-1.04h-2.815
			c-0.055-0.567-0.884-1.495-1.838-1.495H7.074c-0.997,0-1.803,0.927-1.856,1.495H2.463c0,0-0.953-0.019-1.257,0.99
			c-0.616,2.055-0.616,5.116,0,7.083c0.341,1.085,1.257,1.042,1.257,1.042h11.068c0,0,0.909,0.029,1.237-1.042
			C15.38,10.766,15.457,7.734,14.769,5.729z M7.969,12.347c-1.771,0-3.206-1.435-3.206-3.205c0-1.771,1.436-3.208,3.206-3.208
			c1.771,0,3.207,1.436,3.207,3.208C11.176,10.912,9.74,12.347,7.969,12.347z"/>
	</g>
</g>
</svg>
