<?xml version="1.0" encoding="utf-8"?>
<!-- Generator: Adobe Illustrator 13.0.0, SVG Export Plug-In . SVG Version: 6.00 Build 14948)  -->
<!DOCTYPE svg PUBLIC "-//W3C//DTD SVG 1.1//EN" "http://www.w3.org/Graphics/SVG/1.1/DTD/svg11.dtd">
<svg version="1.1" id="Layer_1" xmlns="http://www.w3.org/2000/svg" xmlns:xlink="http://www.w3.org/1999/xlink" x="0px" y="0px"
	 width="16px" height="16px" viewBox="0 0 16 16" enable-background="new 0 0 16 16" xml:space="preserve">
<g>
	<g>
		<path fill-rule="evenodd" clip-rule="evenodd" d="M13.347,2.621c-1.854-1.854-4.855-1.854-6.71-0.001
			C5.262,3.996,4.912,6.004,5.578,7.707l-4.646,4.646l0.334,2.351l2.35,0.334l0.557-0.557l-0.208-1.227l1.252,0.183l0.508-0.508
			l-0.667-2.348l2.39,0.625l0.815-0.815c1.701,0.664,3.707,0.313,5.082-1.061C15.202,7.478,15.202,4.474,13.347,2.621z
			 M12.477,6.674c-0.526,0.527-1.666,0.241-2.546-0.637C9.054,5.158,8.769,4.019,9.296,3.492c0.526-0.526,1.666-0.243,2.545,0.636
			C12.718,5.007,13.005,6.146,12.477,6.674z"/>
	</g>
</g>
</svg>
