<?xml version="1.0" encoding="utf-8"?>
<!-- Generator: Adobe Illustrator 13.0.0, SVG Export Plug-In . SVG Version: 6.00 Build 14948)  -->
<!DOCTYPE svg PUBLIC "-//W3C//DTD SVG 1.1//EN" "http://www.w3.org/Graphics/SVG/1.1/DTD/svg11.dtd">
<svg version="1.1" id="Layer_1" xmlns="http://www.w3.org/2000/svg" xmlns:xlink="http://www.w3.org/1999/xlink" x="0px" y="0px"
	 width="16px" height="16px" viewBox="0 0 16 16" enable-background="new 0 0 16 16" xml:space="preserve">
<g>
	<g>
		<path fill-rule="evenodd" clip-rule="evenodd" d="M14.011,6.905H6.996c-0.565,0-1.024,0.458-1.024,1.024
			c0,0.564,0.459,1.023,1.024,1.023h7.015c0.565,0,1.023-0.459,1.023-1.023C15.034,7.364,14.576,6.905,14.011,6.905z M6.996,4.949
			h7.015c0.565,0,1.023-0.458,1.023-1.023s-0.458-1.024-1.023-1.024H6.996c-0.565,0-1.024,0.458-1.024,1.024
			S6.431,4.949,6.996,4.949z M14.011,10.905H6.996c-0.565,0-1.024,0.458-1.024,1.024c0,0.564,0.459,1.023,1.024,1.023h7.015
			c0.565,0,1.023-0.459,1.023-1.023C15.034,11.363,14.576,10.905,14.011,10.905z M2.979,2.902H1.995
			c-0.564,0-1.023,0.458-1.023,1.024s0.459,1.023,1.023,1.023h0.983c0.565,0,1.024-0.458,1.024-1.023S3.544,2.902,2.979,2.902z
			 M2.979,10.902H1.995c-0.564,0-1.023,0.458-1.023,1.023s0.459,1.023,1.023,1.023h0.983c0.565,0,1.024-0.458,1.024-1.023
			S3.544,10.902,2.979,10.902z M2.979,6.902H1.995c-0.564,0-1.023,0.458-1.023,1.024s0.459,1.023,1.023,1.023h0.983
			c0.565,0,1.024-0.458,1.024-1.023S3.544,6.902,2.979,6.902z"/>
	</g>
</g>
</svg>
