<?xml version="1.0" encoding="utf-8"?>
<!-- Generator: Adobe Illustrator 13.0.0, SVG Export Plug-In . SVG Version: 6.00 Build 14948)  -->
<!DOCTYPE svg PUBLIC "-//W3C//DTD SVG 1.1//EN" "http://www.w3.org/Graphics/SVG/1.1/DTD/svg11.dtd">
<svg version="1.1" id="Layer_1" xmlns="http://www.w3.org/2000/svg" xmlns:xlink="http://www.w3.org/1999/xlink" x="0px" y="0px"
	 width="16px" height="16px" viewBox="0 0 16 16" enable-background="new 0 0 16 16" xml:space="preserve">
<path d="M1.523,5.827h12.978c0.436,0,0.364-0.464,0.147-0.54S12.02,4.3,11.6,4.3h-0.687V2.01H5.111V4.3H4.425
	c-0.42,0-2.832,0.912-3.049,0.987S1.088,5.827,1.523,5.827 M14.653,6.667H1.371c-0.42,0-0.84,0.496-0.84,0.916v2.672
	c0,0.42,0.42,0.916,0.84,0.916h1.513l-0.673,3.817h11.603l-0.673-3.817h1.513c0.42,0,0.84-0.496,0.84-0.916V7.583
	C15.493,7.163,15.073,6.667,14.653,6.667 M3.737,13.461l1.068-4.962h6.413l1.068,4.962H3.737z"/>
</svg>
