<?xml version="1.0" encoding="utf-8"?>
<svg xmlns="http://www.w3.org/2000/svg" xmlns:boxy="http://www.boxy-svg.com/boxyNS" version="1.1" id="Layer_1" x="0px" y="0px" width="100" height="100" enable-background="new -346 256 100 100" xml:space="preserve" boxy:zoom="278" boxy:scrollX="-153" boxy:scrollY="-70" viewBox="0 0 100 100">
  <defs/>
  <path d="M-263.363,311.56l-6.967-25.521l-19.562-12.246l19.148-3.609l0.413-5.213c0,0-14.309-6.192-25.391-8.708  c-2.433-0.553-4.653,8.025-6.731,7.853c-2.199-0.184-3.021-8.415-4.454-7.966c-8.955,2.807-14.775,15.64-14.775,15.64l13.432,5.213  l-19.7,16.04v42.107L-337.167,356h87.984L-263.363,311.56z M-296.575,337.709c-11.64,0-21.076-9.436-21.076-21.076  c0-11.639,9.436-21.075,21.076-21.075s21.076,9.436,21.076,21.075C-275.499,328.273-284.936,337.709-296.575,337.709z" transform="matrix(0.881719 0 0 0.881719 308.838 -224.858)"/>
  <path d="M-297.026,313.592c-1.286-0.602-2.143-1.31-2.143-2.443c0-1.664,0.935-2.584,2.143-3.08V313.592L-297.026,313.592z   M-295.195,319.575c1.323,0.602,2.258,1.416,2.258,2.727c0,1.31-0.973,2.194-2.258,2.69V319.575L-295.195,319.575z   M-297.026,301.271v2.62c-4.167,0.46-7.828,2.621-7.828,7.471c0,4.921,4.323,6.195,7.828,7.435v6.621  c-0.273,0.07-0.506,0.07-0.74,0.07c-2.142,0-4.284-0.602-6.153-1.521l-0.507,4.461c2.688,0.601,4.011,0.956,6.971,0.956  c0.117,0,0.273,0,0.429-0.036v2.797h1.831v-2.902c4.478-0.496,7.944-2.69,7.944-7.33c0-5.098-4.519-6.372-7.944-7.611v-6.55  c0.117-0.035,0.194-0.035,0.311-0.035c1.908,0,3.816,0.39,5.53,1.062l0.507-4.071c-1.948-0.603-4.051-0.886-6.348-0.886v-2.548  H-297.026L-297.026,301.271z" transform="matrix(0.881719 0 0 0.881719 308.838 -224.858)"/>
</svg>