<?xml version="1.0" encoding="utf-8"?>
<svg xmlns="http://www.w3.org/2000/svg" xmlns:boxy="http://www.boxy-svg.com/boxyNS" version="1.1" id="Layer_1" x="0px" y="0px" width="100" height="100" enable-background="new 0 0 100 100" xml:space="preserve" boxy:zoom="494" boxy:scrollX="-53" boxy:scrollY="-3" viewBox="0 0 100 100">
  <defs/>
  <path d="M45.403,66.2c-0.994,0-1.8-0.806-1.8-1.8c0-1.624-1.321-2.944-2.944-2.944s-2.944,1.32-2.944,2.944  c0,0.994-0.806,1.8-1.8,1.8s-1.8-0.806-1.8-1.8c0-3.609,2.936-6.545,6.544-6.545s6.544,2.936,6.544,6.545  C47.203,65.395,46.397,66.2,45.403,66.2z" transform="matrix(0.949885 0 0 0.949885 3.2667 -0.723619)"/>
  <path d="M63.434,66.2c-0.994,0-1.8-0.806-1.8-1.8c0-1.624-1.321-2.944-2.944-2.944c-1.624,0-2.944,1.32-2.944,2.944  c0,0.994-0.807,1.8-1.801,1.8c-0.993,0-1.8-0.806-1.8-1.8c0-3.609,2.936-6.545,6.545-6.545c3.608,0,6.544,2.936,6.544,6.545  C65.233,65.395,64.428,66.2,63.434,66.2z" transform="matrix(0.949885 0 0 0.949885 3.2667 -0.723619)"/>
  <path d="M49.033,95c-18.607,0-24.776-15.139-26.436-20.825c-1.628-0.313-3.063-1.124-4.228-2.4  c-5.735-6.292-2.96-23.055-2.625-24.946c0.18-1.016,0.924-1.841,1.916-2.124c0.989-0.282,2.059,0.021,2.749,0.79l8.1,9  c0.998,1.108,0.908,2.814-0.2,3.812c-1.108,0.999-2.815,0.908-3.812-0.2l-4.144-4.604c-0.44,5.725-0.179,12.236,2.008,14.634  c0.566,0.62,1.212,0.847,2.148,0.773c1.378-0.133,2.649,0.854,2.885,2.237c0.132,0.746,3.45,18.452,21.639,18.452  c18.189,0,21.507-17.706,21.64-18.459c0.242-1.376,1.5-2.354,2.885-2.23c0.985,0.076,1.654-0.155,2.23-0.793  c2.102-2.322,2.29-8.502,1.902-13.686l-3.272,3.667c-0.993,1.11-2.699,1.209-3.812,0.216c-1.112-0.993-1.21-2.7-0.217-3.812  l7.23-8.101c0.688-0.767,1.749-1.081,2.742-0.801c0.991,0.276,1.739,1.095,1.928,2.108c0.334,1.807,3.107,17.837-2.496,24.031  c-1.183,1.307-2.652,2.132-4.325,2.443C73.804,79.876,67.631,95,49.033,95z" transform="matrix(0.949885 0 0 0.949885 3.2667 -0.723619)"/>
  <path d="M49.029,84.2c-5.635,0-11.02-2.135-14.772-5.858c-0.705-0.7-0.711-1.839-0.01-2.545c0.698-0.707,1.839-0.711,2.545-0.011  c3.084,3.06,7.545,4.813,12.237,4.813s9.152-1.754,12.236-4.813c0.706-0.699,1.847-0.695,2.546,0.011  c0.7,0.706,0.695,1.845-0.011,2.545C60.048,82.065,54.664,84.2,49.029,84.2z" transform="matrix(0.949885 0 0 0.949885 3.2667 -0.723619)"/>
  <path d="M49.004,5c-4.963,0-9,4.038-9,9s4.037,9,9,9c4.962,0,9-4.038,9-9S53.966,5,49.004,5z M49.004,17.6  c-1.985,0-3.601-1.614-3.601-3.6s1.615-3.6,3.601-3.6s3.6,1.614,3.6,3.6S50.989,17.6,49.004,17.6z" transform="matrix(0.949885 0 0 0.949885 3.2667 -0.723619)"/>
  <path d="M49.903,19.4h-4.5L25.604,42.8c0,0,18.9-4.5,23.4-4.5" transform="matrix(0.949885 0 0 0.949885 3.2667 -0.723619)"/>
  <path d="M48.104,19.4h4.5l19.8,23.399c0,0-18.899-4.5-23.399-4.5" transform="matrix(0.949885 0 0 0.949885 3.2667 -0.723619)"/>
  <path d="M71.003,57.708c-23.275-14.131-42.109-0.712-42.899-0.133l-3.205-4.346c0.222-0.165,22.467-16.188,48.906-0.138  L71.003,57.708z" transform="matrix(0.949885 0 0 0.949885 3.2667 -0.723619)"/>
  <path d="M20.203,50.001c-1.131,0-2.184-0.716-2.561-1.848c-0.472-1.414,0.293-2.943,1.708-3.414l7.37-2.458l4.009-4.811  c0.634-0.76,1.634-1.113,2.604-0.918l7.948,1.589l6.291-3.931c0.876-0.547,1.986-0.547,2.862,0l6.291,3.931l7.949-1.589  c0.968-0.195,1.97,0.158,2.603,0.918l3.98,4.776l8.222,2.467c1.429,0.429,2.238,1.934,1.81,3.362  c-0.428,1.428-1.928,2.243-3.361,1.81l-9-2.7c-0.508-0.152-0.959-0.45-1.299-0.856l-3.472-4.166l-7.425,1.484  c-0.673,0.134-1.376,0.007-1.96-0.358l-5.769-3.604l-5.77,3.604c-0.584,0.364-1.287,0.492-1.96,0.358l-7.425-1.484l-3.472,4.166  c-0.322,0.386-0.744,0.674-1.221,0.832l-8.101,2.7C20.774,49.956,20.486,50.001,20.203,50.001z" transform="matrix(0.949885 0 0 0.949885 3.2667 -0.723619)"/>
  <path d="M54.402,74.3c-0.392,0-0.785-0.126-1.116-0.389c-0.359-0.278-3.526-2.589-6.759-0.006c-0.774,0.621-1.908,0.496-2.529-0.281  c-0.621-0.776-0.495-1.909,0.281-2.529c4.448-3.56,9.303-1.558,11.248,0c0.777,0.62,0.903,1.753,0.281,2.529  C55.454,74.068,54.93,74.3,54.402,74.3z" transform="matrix(0.949885 0 0 0.949885 3.2667 -0.723619)"/>
</svg>