<svg xmlns="http://www.w3.org/2000/svg" xmlns:xlink="http://www.w3.org/1999/xlink" version="1.1" x="0px" y="0px" width="100px" height="100px" viewBox="0 0 100 100" enable-background="new 0 0 100 100" xml:space="preserve">
<g id="Layer_2">
</g>
<g id="Layer_1">
	<g>
		<path fill="#000000" d="M17.947,61.858l-0.599,0.508l-0.599-0.508c-1.324-1.12-3.347-1.259-4.604-0.087    c-1.305,1.217-1.305,3.194,0,4.411l4.889,4.556c0.173,0.163,0.456,0.163,0.63,0l4.888-4.556c1.305-1.216,1.305-3.195,0-4.411    C21.294,60.599,19.272,60.738,17.947,61.858z"/>
		<path fill="#000000" d="M36.144,66.812l-0.599,0.508l-0.599-0.508c-1.324-1.12-3.347-1.259-4.604-0.087    c-1.305,1.217-1.305,3.194,0,4.411l4.889,4.556c0.173,0.163,0.456,0.163,0.63,0l4.888-4.556c1.305-1.216,1.305-3.195,0-4.411    C39.49,65.553,37.469,65.692,36.144,66.812z"/>
		<path fill="#000000" d="M48.159,45.999l-0.599,0.508l-0.599-0.508c-1.324-1.12-3.347-1.259-4.604-0.087    c-1.305,1.217-1.305,3.194,0,4.411l4.889,4.556c0.173,0.163,0.456,0.163,0.63,0l4.888-4.556c1.305-1.216,1.305-3.195,0-4.411    C51.506,44.74,49.484,44.879,48.159,45.999z"/>
		<path fill="#000000" d="M75.936,40.824c-1.258-1.172-3.279-1.033-4.604,0.087l-0.599,0.508l-0.599-0.508    c-1.324-1.12-3.347-1.259-4.604-0.087c-1.305,1.217-1.305,3.194,0,4.411l4.889,4.556c0.173,0.163,0.456,0.163,0.63,0l4.888-4.556    C77.24,44.018,77.24,42.04,75.936,40.824z"/>
		<path fill="#000000" d="M62.417,61.999l-0.599,0.508l-0.599-0.508c-1.324-1.12-3.347-1.259-4.604-0.087    c-1.305,1.217-1.305,3.194,0,4.411l4.889,4.556c0.173,0.163,0.456,0.163,0.63,0l4.888-4.556c1.305-1.216,1.305-3.195,0-4.411    C65.764,60.739,63.742,60.878,62.417,61.999z"/>
		<path fill="#000000" d="M32.863,42.785l4.888-4.556c1.305-1.216,1.305-3.195,0-4.411c-1.258-1.172-3.279-1.033-4.604,0.087    l-0.599,0.508l-0.599-0.508c-1.324-1.12-3.347-1.259-4.604-0.087c-1.305,1.217-1.305,3.194,0,4.411l4.889,4.556    C32.406,42.947,32.689,42.947,32.863,42.785z"/>
		<path fill="#000000" d="M95.465,77.678L84.5,27.837V16c0-0.829-0.672-1.5-1.5-1.5H16c-0.828,0-1.5,0.671-1.5,1.5v11.837    L3.535,77.678c-0.092,0.416-0.002,0.852,0.247,1.198s0.633,0.57,1.057,0.616l37,4c0.055,0.006,0.108,0.009,0.162,0.009    c0.639,0,1.216-0.408,1.422-1.026l5.671-17.013l6.505,17.073c0.242,0.637,0.877,1.027,1.562,0.957l37-4    c0.424-0.046,0.808-0.27,1.057-0.616S95.557,78.094,95.465,77.678z M81.5,17.5v9.092C81.343,26.536,81.176,26.5,81,26.5H17.5v-9    H81.5z M83.293,77.649c0.216-0.992-0.085-2.063-0.908-2.831c-1.258-1.172-3.279-1.033-4.604,0.087l-0.599,0.508l-0.599-0.508    c-1.324-1.12-3.347-1.259-4.604-0.087c-1.196,1.115-1.282,2.863-0.285,4.084l-13.704,1.481l-7.588-19.918    C50.18,59.883,49.621,59.5,49,59.5c-0.011,0-0.021,0-0.031,0c-0.635,0.013-1.191,0.424-1.392,1.025l-6.618,19.853l-34.135-3.69    L12.872,49.2c0.038,0.04,0.065,0.084,0.106,0.122l4.889,4.556c0.173,0.163,0.456,0.163,0.63,0l4.888-4.556    c1.305-1.216,1.305-3.195,0-4.411c-1.258-1.172-3.279-1.033-4.604,0.087l-0.599,0.508l-0.599-0.508    c-1.021-0.864-2.456-1.136-3.638-0.68L17.206,29.5H52.41c0.061,0.714,0.368,1.413,0.953,1.958l4.889,4.556    c0.173,0.163,0.456,0.163,0.63,0l4.888-4.556c0.585-0.545,0.893-1.244,0.953-1.958H81c0.274,0,0.527-0.079,0.749-0.208    l0.493,2.242c-1.085-0.286-2.26-0.098-3.098,0.683c-1.305,1.217-1.305,3.194,0,4.411l4.889,4.556    c0.098,0.091,0.229,0.126,0.356,0.114l3.636,16.525c-0.002-0.001-0.002-0.003-0.004-0.004c-1.258-1.172-3.279-1.033-4.604,0.087    l-0.599,0.508l-0.599-0.508c-1.324-1.12-3.347-1.259-4.604-0.087c-1.305,1.217-1.305,3.194,0,4.411l4.889,4.556    c0.173,0.163,0.456,0.163,0.63,0l4.888-4.556c0.333-0.31,0.578-0.67,0.741-1.054l3.413,15.514L83.293,77.649z"/>
	</g>
</g>
</svg>