<svg xmlns="http://www.w3.org/2000/svg" xmlns:xlink="http://www.w3.org/1999/xlink" version="1.1" id="Layer_1" x="0px" y="0px" width="100px" height="100px" viewBox="0 0 100 100" enable-background="new 0 0 100 100" xml:space="preserve">
<path d="M50,0C22.389,0,0,22.383,0,49.994V100h100V49.994C100,22.383,77.617,0,50,0z M96.667,96.667H3.333V49.994  c0-25.729,20.938-46.66,46.667-46.66c25.729,0,46.667,20.931,46.667,46.66V96.667z"/>
<path d="M50,10c-22.083,0-40,17.91-40,39.994V90l30-30V50c0-5.521,4.479-10,10-10c5.521,0,10,4.479,10,10v10l30,30V49.994  C90,27.91,72.09,10,50,10z"/>
</svg>